<svg width="264" height="43" viewBox="0 0 264 43" fill="none" xmlns="http://www.w3.org/2000/svg">
<path d="M56.4005 32.2196C56.1577 32.2196 55.9392 32.1346 55.7449 31.9647C55.575 31.7947 55.49 31.5762 55.49 31.3091V14.1908C55.49 13.9237 55.575 13.7052 55.7449 13.5352C55.9392 13.3652 56.1577 13.2802 56.4005 13.2802H59.7878C60.0549 13.2802 60.2734 13.3652 60.4434 13.5352C60.6133 13.7052 60.6983 13.9237 60.6983 14.1908V15.4291C61.2082 14.7493 61.8881 14.1665 62.7379 13.6809C63.6121 13.1952 64.644 12.9403 65.8338 12.916C68.6262 12.8675 70.5565 13.9358 71.6249 16.1211C72.1834 15.1742 72.9846 14.4093 74.0287 13.8266C75.0728 13.2195 76.2262 12.916 77.4888 12.916C78.7514 12.916 79.8927 13.2074 80.9125 13.7901C81.9323 14.3486 82.7457 15.2227 83.3527 16.4125C83.9598 17.578 84.2633 19.0835 84.2633 20.9288V31.3091C84.2633 31.5762 84.1662 31.7947 83.9719 31.9647C83.8019 32.1346 83.5956 32.2196 83.3527 32.2196H79.747C79.4799 32.2196 79.2613 32.1346 79.0914 31.9647C78.9214 31.7947 78.8364 31.5762 78.8364 31.3091V21.2202C78.8364 20.2247 78.6907 19.4477 78.3994 18.8892C78.1323 18.3307 77.7559 17.9301 77.2703 17.6873C76.8089 17.4202 76.2869 17.2866 75.7041 17.2866C75.1942 17.2866 74.6965 17.4202 74.2108 17.6873C73.7495 17.9301 73.361 18.3307 73.0453 18.8892C72.754 19.4477 72.6083 20.2247 72.6083 21.2202V31.3091C72.6083 31.5762 72.5233 31.7947 72.3533 31.9647C72.1834 32.1346 71.977 32.2196 71.7342 32.2196H68.1284C67.8613 32.2196 67.6428 32.1346 67.4728 31.9647C67.3028 31.7947 67.2178 31.5762 67.2178 31.3091V21.2202C67.2178 20.2247 67.0722 19.4477 66.7808 18.8892C66.4894 18.3307 66.1009 17.9301 65.6153 17.6873C65.1539 17.4202 64.644 17.2866 64.0856 17.2866C63.5757 17.2866 63.0779 17.4202 62.5923 17.6873C62.1309 17.9301 61.7424 18.3307 61.4268 18.8892C61.1354 19.4477 60.9897 20.2125 60.9897 21.1838V31.3091C60.9897 31.5762 60.9047 31.7947 60.7347 31.9647C60.5648 32.1346 60.3462 32.2196 60.0791 32.2196H56.4005Z" fill="white"/>
<path d="M94.9414 32.5838C93.6545 32.5838 92.5012 32.341 91.4814 31.8554C90.4616 31.3455 89.6481 30.6656 89.0411 29.8158C88.4341 28.9659 88.1306 28.019 88.1306 26.9749C88.1306 25.2509 88.8226 23.8911 90.2066 22.8956C91.6149 21.9001 93.4603 21.2202 95.7427 20.856L100.514 20.164V19.5084C100.514 18.5614 100.295 17.833 99.8584 17.3231C99.4213 16.8132 98.6565 16.5582 97.5638 16.5582C96.7625 16.5582 96.1191 16.716 95.6335 17.0317C95.1721 17.3473 94.8079 17.7601 94.5408 18.27C94.3466 18.5857 94.0552 18.7435 93.6667 18.7435H90.2066C89.9395 18.7435 89.7331 18.6707 89.5874 18.525C89.4417 18.355 89.381 18.1608 89.4053 17.9422C89.4053 17.5295 89.5631 17.0438 89.8788 16.4854C90.1945 15.9269 90.6801 15.3806 91.3357 14.8464C91.9913 14.2879 92.829 13.8266 93.8488 13.4623C94.8929 13.0981 96.1434 12.916 97.6002 12.916C99.13 12.916 100.441 13.0981 101.534 13.4623C102.626 13.8266 103.501 14.3365 104.156 14.9921C104.836 15.6477 105.322 16.4125 105.613 17.2866C105.929 18.1365 106.087 19.0592 106.087 20.0547V31.3091C106.087 31.5762 106.002 31.7947 105.832 31.9647C105.662 32.1346 105.455 32.2196 105.212 32.2196H101.607C101.364 32.2196 101.157 32.1346 100.987 31.9647C100.818 31.7947 100.733 31.5762 100.733 31.3091V29.9615C100.417 30.4228 99.992 30.8599 99.4578 31.2727C98.9236 31.6612 98.2801 31.9768 97.5274 32.2196C96.799 32.4624 95.937 32.5838 94.9414 32.5838ZM96.3983 28.796C97.1996 28.796 97.9159 28.626 98.5472 28.2861C99.1785 27.9461 99.6763 27.4241 100.041 26.7199C100.405 26.0158 100.587 25.1295 100.587 24.0611V23.4419L97.1996 23.9883C95.9127 24.2068 94.9657 24.5346 94.3587 24.9717C93.7517 25.4087 93.4482 25.9429 93.4482 26.5742C93.4482 27.0356 93.5817 27.4362 93.8488 27.7761C94.1402 28.0918 94.5044 28.3468 94.9414 28.541C95.4028 28.711 95.8884 28.796 96.3983 28.796Z" fill="white"/>
<path d="M112.099 32.2196C111.856 32.2196 111.638 32.1346 111.443 31.9647C111.273 31.7947 111.188 31.5762 111.188 31.3091V14.1908C111.188 13.948 111.273 13.7416 111.443 13.5716C111.638 13.3774 111.856 13.2802 112.099 13.2802H115.668C115.935 13.2802 116.154 13.3774 116.324 13.5716C116.494 13.7416 116.579 13.948 116.579 14.1908V15.6477C117.186 14.8949 117.939 14.3122 118.837 13.8994C119.735 13.4866 120.755 13.2802 121.896 13.2802H123.463C123.73 13.2802 123.948 13.3652 124.118 13.5352C124.288 13.7052 124.373 13.9237 124.373 14.1908V17.3595C124.373 17.6023 124.288 17.8087 124.118 17.9787C123.948 18.1486 123.73 18.2336 123.463 18.2336H120.294C119.201 18.2336 118.351 18.5371 117.744 19.1442C117.162 19.7512 116.87 20.5889 116.87 21.6573V31.3091C116.87 31.5762 116.773 31.7947 116.579 31.9647C116.409 32.1346 116.203 32.2196 115.96 32.2196H112.099Z" fill="white"/>
<path d="M128.727 32.2196C128.46 32.2196 128.242 32.1346 128.072 31.9647C127.902 31.7947 127.817 31.5762 127.817 31.3091V7.27062C127.817 7.00353 127.902 6.785 128.072 6.61503C128.242 6.44506 128.46 6.36007 128.727 6.36007H132.297C132.539 6.36007 132.746 6.44506 132.916 6.61503C133.11 6.785 133.207 7.00353 133.207 7.27062V19.5812L138.78 13.8994C138.974 13.7294 139.144 13.5837 139.29 13.4623C139.46 13.3409 139.715 13.2802 140.055 13.2802H144.207C144.425 13.2802 144.607 13.3652 144.753 13.5352C144.923 13.6809 145.008 13.863 145.008 14.0815C145.008 14.1786 144.984 14.2879 144.935 14.4093C144.886 14.5307 144.801 14.6278 144.68 14.7007L137.651 21.7665L145.591 30.8356C145.785 31.0298 145.882 31.2241 145.882 31.4183C145.882 31.6369 145.809 31.8311 145.663 32.0011C145.518 32.1468 145.324 32.2196 145.081 32.2196H140.856C140.492 32.2196 140.224 32.1589 140.055 32.0375C139.909 31.9161 139.739 31.7704 139.545 31.6005L133.207 24.4618V31.3091C133.207 31.5762 133.11 31.7947 132.916 31.9647C132.746 32.1346 132.539 32.2196 132.297 32.2196H128.727Z" fill="white"/>
<path d="M156.807 32.5838C154.014 32.5838 151.793 31.8068 150.141 30.2528C148.515 28.6988 147.653 26.4407 147.555 23.4784C147.555 23.2841 147.555 23.0292 147.555 22.7135C147.555 22.3736 147.555 22.1186 147.555 21.9486C147.653 20.0547 148.077 18.44 148.83 17.1045C149.583 15.7448 150.639 14.7128 151.999 14.0087C153.359 13.2802 154.949 12.916 156.77 12.916C158.834 12.916 160.546 13.3409 161.906 14.1908C163.265 15.0163 164.285 16.1576 164.965 17.6144C165.669 19.047 166.021 20.6982 166.021 22.5678V23.4055C166.021 23.6483 165.936 23.8669 165.766 24.0611C165.596 24.2311 165.378 24.3161 165.111 24.3161H153.237C153.237 24.3161 153.237 24.3525 153.237 24.4253C153.237 24.4739 153.237 24.5225 153.237 24.571C153.262 25.348 153.407 26.0643 153.674 26.7199C153.941 27.3512 154.33 27.8611 154.84 28.2496C155.374 28.6381 156.017 28.8324 156.77 28.8324C157.353 28.8324 157.839 28.7474 158.227 28.5774C158.616 28.3832 158.931 28.1768 159.174 27.9583C159.441 27.7154 159.635 27.5091 159.757 27.3391C159.975 27.072 160.145 26.9142 160.267 26.8656C160.412 26.7928 160.619 26.7563 160.886 26.7563H164.747C164.965 26.7563 165.147 26.8292 165.293 26.9749C165.463 27.1206 165.536 27.3027 165.511 27.5212C165.487 27.934 165.281 28.4317 164.892 29.0145C164.528 29.573 163.982 30.1314 163.253 30.6899C162.525 31.2241 161.614 31.6733 160.522 32.0375C159.453 32.4017 158.215 32.5838 156.807 32.5838ZM153.237 20.9653H160.34V20.856C160.34 20.0061 160.194 19.2656 159.902 18.6343C159.635 17.9787 159.235 17.4688 158.701 17.1045C158.166 16.7403 157.523 16.5582 156.77 16.5582C156.017 16.5582 155.374 16.7403 154.84 17.1045C154.33 17.4688 153.929 17.9787 153.638 18.6343C153.371 19.2656 153.237 20.0061 153.237 20.856V20.9653Z" fill="white"/>
<path d="M179.46 32.2196C177.955 32.2196 176.668 31.9768 175.6 31.4912C174.556 30.9813 173.754 30.2043 173.196 29.1602C172.637 28.1161 172.358 26.8049 172.358 25.2266V17.578H169.517C169.25 17.578 169.032 17.493 168.862 17.3231C168.692 17.1531 168.607 16.9467 168.607 16.7039V14.1908C168.607 13.9237 168.692 13.7052 168.862 13.5352C169.032 13.3652 169.25 13.2802 169.517 13.2802H172.358V7.27062C172.358 7.00353 172.443 6.785 172.613 6.61503C172.807 6.44506 173.026 6.36007 173.269 6.36007H176.874C177.117 6.36007 177.324 6.44506 177.494 6.61503C177.664 6.785 177.749 7.00353 177.749 7.27062V13.2802H182.301C182.568 13.2802 182.787 13.3652 182.957 13.5352C183.127 13.7052 183.212 13.9237 183.212 14.1908V16.7039C183.212 16.9467 183.127 17.1531 182.957 17.3231C182.787 17.493 182.568 17.578 182.301 17.578H177.749V24.7896C177.749 25.7122 177.919 26.4407 178.259 26.9749C178.598 27.4848 179.169 27.7397 179.97 27.7397H182.629C182.896 27.7397 183.115 27.8247 183.285 27.9947C183.455 28.1646 183.54 28.371 183.54 28.6139V31.3091C183.54 31.5762 183.455 31.7947 183.285 31.9647C183.115 32.1346 182.896 32.2196 182.629 32.2196H179.46Z" fill="white"/>
<path d="M188.32 32.2196C188.053 32.2196 187.834 32.1346 187.664 31.9647C187.494 31.7947 187.409 31.5762 187.409 31.3091V7.27062C187.409 7.00353 187.494 6.785 187.664 6.61503C187.834 6.44506 188.053 6.36007 188.32 6.36007H192.253C192.52 6.36007 192.739 6.44506 192.909 6.61503C193.079 6.785 193.164 7.00353 193.164 7.27062V15.4655C193.795 14.6885 194.584 14.0694 195.531 13.608C196.503 13.1467 197.656 12.916 198.991 12.916C200.424 12.916 201.687 13.2438 202.779 13.8994C203.896 14.5307 204.758 15.4655 205.365 16.7039C205.997 17.918 206.312 19.3991 206.312 21.1474V31.3091C206.312 31.5762 206.227 31.7947 206.057 31.9647C205.887 32.1346 205.669 32.2196 205.402 32.2196H201.432C201.189 32.2196 200.982 32.1346 200.812 31.9647C200.643 31.7947 200.558 31.5762 200.558 31.3091V21.3659C200.558 20.079 200.242 19.0835 199.611 18.3793C198.979 17.6509 198.081 17.2866 196.915 17.2866C195.774 17.2866 194.864 17.6509 194.184 18.3793C193.504 19.0835 193.164 20.079 193.164 21.3659V31.3091C193.164 31.5762 193.079 31.7947 192.909 31.9647C192.739 32.1346 192.52 32.2196 192.253 32.2196H188.32Z" fill="white"/>
<path d="M212.273 32.2196C212.031 32.2196 211.812 32.1346 211.618 31.9647C211.448 31.7947 211.363 31.5762 211.363 31.3091V14.1908C211.363 13.9237 211.448 13.7052 211.618 13.5352C211.812 13.3652 212.031 13.2802 212.273 13.2802H215.952C216.195 13.2802 216.401 13.3652 216.571 13.5352C216.741 13.7052 216.826 13.9237 216.826 14.1908V31.3091C216.826 31.5762 216.741 31.7947 216.571 31.9647C216.401 32.1346 216.195 32.2196 215.952 32.2196H212.273ZM212.164 10.3665C211.921 10.3665 211.715 10.2815 211.545 10.1115C211.375 9.94156 211.29 9.72303 211.29 9.45594V6.50576C211.29 6.26295 211.375 6.05656 211.545 5.88659C211.715 5.69234 211.921 5.59521 212.164 5.59521H216.025C216.268 5.59521 216.474 5.69234 216.644 5.88659C216.838 6.05656 216.935 6.26295 216.935 6.50576V9.45594C216.935 9.72303 216.838 9.94156 216.644 10.1115C216.474 10.2815 216.268 10.3665 216.025 10.3665H212.164Z" fill="white"/>
<path d="M223.032 32.2196C222.789 32.2196 222.571 32.1346 222.377 31.9647C222.207 31.7947 222.122 31.5762 222.122 31.3091V14.1908C222.122 13.9237 222.207 13.7052 222.377 13.5352C222.571 13.3652 222.789 13.2802 223.032 13.2802H226.601C226.869 13.2802 227.087 13.3652 227.257 13.5352C227.427 13.7052 227.512 13.9237 227.512 14.1908V15.6112C228.143 14.8342 228.957 14.1908 229.952 13.6809C230.972 13.171 232.186 12.916 233.594 12.916C235.027 12.916 236.29 13.2438 237.382 13.8994C238.475 14.5307 239.325 15.4655 239.932 16.7039C240.539 17.918 240.842 19.3991 240.842 21.1474V31.3091C240.842 31.5762 240.757 31.7947 240.587 31.9647C240.418 32.1346 240.199 32.2196 239.932 32.2196H236.071C235.804 32.2196 235.586 32.1346 235.416 31.9647C235.246 31.7947 235.161 31.5762 235.161 31.3091V21.3659C235.161 20.079 234.845 19.0835 234.214 18.3793C233.607 17.6509 232.708 17.2866 231.518 17.2866C230.377 17.2866 229.467 17.6509 228.787 18.3793C228.131 19.0835 227.803 20.079 227.803 21.3659V31.3091C227.803 31.5762 227.718 31.7947 227.548 31.9647C227.378 32.1346 227.16 32.2196 226.893 32.2196H223.032Z" fill="white"/>
<path d="M246.845 32.2196C246.578 32.2196 246.36 32.1346 246.19 31.9647C246.02 31.7947 245.935 31.5762 245.935 31.3091V7.27062C245.935 7.00353 246.02 6.785 246.19 6.61503C246.36 6.44506 246.578 6.36007 246.845 6.36007H250.415C250.657 6.36007 250.864 6.44506 251.034 6.61503C251.228 6.785 251.325 7.00353 251.325 7.27062V19.5812L256.898 13.8994C257.092 13.7294 257.262 13.5837 257.408 13.4623C257.578 13.3409 257.832 13.2802 258.172 13.2802H262.325C262.543 13.2802 262.725 13.3652 262.871 13.5352C263.041 13.6809 263.126 13.863 263.126 14.0815C263.126 14.1786 263.102 14.2879 263.053 14.4093C263.004 14.5307 262.919 14.6278 262.798 14.7007L255.769 21.7665L263.709 30.8356C263.903 31.0298 264 31.2241 264 31.4183C264 31.6369 263.927 31.8311 263.781 32.0011C263.636 32.1468 263.441 32.2196 263.199 32.2196H258.974C258.609 32.2196 258.342 32.1589 258.172 32.0375C258.027 31.9161 257.857 31.7704 257.663 31.6005L251.325 24.4618V31.3091C251.325 31.5762 251.228 31.7947 251.034 31.9647C250.864 32.1346 250.657 32.2196 250.415 32.2196H246.845Z" fill="white"/>
<path d="M29.768 38.5232C34.6034 38.5232 38.5232 34.6034 38.5232 29.768C38.5232 24.9326 34.6034 21.0127 29.768 21.0127C24.9326 21.0127 21.0127 24.9326 21.0127 29.768C21.0127 34.6034 24.9326 38.5232 29.768 38.5232Z" fill="#EDFF81"/>
<path d="M32.3946 15.7596C35.7793 15.7596 38.5232 13.0157 38.5232 9.63088C38.5232 6.2461 35.7793 3.5022 32.3946 3.5022C29.0098 3.5022 26.2659 6.2461 26.2659 9.63088C26.2659 13.0157 29.0098 15.7596 32.3946 15.7596Z" fill="white"/>
<path d="M9.68337 38.4707C13.0681 38.4707 15.8121 35.7268 15.8121 32.3421C15.8121 28.9573 13.0681 26.2134 9.68337 26.2134C6.29859 26.2134 3.55469 28.9573 3.55469 32.3421C3.55469 35.7268 6.29859 38.4707 9.68337 38.4707Z" fill="white"/>
<path d="M12.2575 21.0127C17.0929 21.0127 21.0127 17.0929 21.0127 12.2575C21.0127 7.42206 17.0929 3.5022 12.2575 3.5022C7.42206 3.5022 3.5022 7.42206 3.5022 12.2575C3.5022 17.0929 7.42206 21.0127 12.2575 21.0127Z" fill="#EDFF81"/>
</svg>
